<svg xmlns="http://www.w3.org/2000/svg" viewBox="0 0 512 512"><path d="M454.321 219.727l-38.766-51.947 20.815-61.385a16.735 16.735 0 00-21.223-21.223l-61.384 20.815-51.951-38.766a16.736 16.736 0 00-26.741 13.626l.829 64.815-52.923 37.426a16.736 16.736 0 004.694 29.645l43.844 13.63L14.443 483.432c-6.535 6.534-6.535 17.131 0 23.666s17.131 6.535 23.666 0l257.073-257.072 13.629 43.843a16.736 16.736 0 0029.644 4.696l37.426-52.923 64.815.828c6.322.051 12.233-3.462 15.125-9.136s2.31-12.501-1.5-17.607zM173.373 67.274l-13.359-24.426-13.358 24.426-24.426 13.358 24.426 13.36 13.358 24.425 13.359-24.425 24.426-13.36zM362.946 384.489l-10.806-19.758-10.805 19.758-19.758 10.805 19.758 10.806 10.805 19.756 10.806-19.756 19.757-10.806zM378.142 19.757L367.337 0l-10.806 19.757-19.757 10.806 19.757 10.806 10.806 19.757 10.805-19.757L397.9 30.563zM490.635 142.513l-6.468-11.824-6.466 11.824-11.825 6.466 11.825 6.467 6.466 11.824 6.468-11.824 11.823-6.467zM492.626 294.117l-26.75 7.834-26.748-7.834 7.834 26.748-7.834 26.75 26.748-7.834 26.75 7.834-7.835-26.75z"/></svg>